<svg width="19" height="19" viewBox="0 0 19 19" fill="none" xmlns="http://www.w3.org/2000/svg">
<path d="M1.97913 3.36462C1.97913 3.20715 2.04168 3.05613 2.15303 2.94478C2.26438 2.83343 2.4154 2.77087 2.57288 2.77087H3.01463C3.76671 2.77087 4.21796 3.27675 4.47525 3.747C4.64704 4.0605 4.77133 4.42387 4.86871 4.75321C4.89505 4.75113 4.92146 4.75007 4.94788 4.75004H14.8421C15.4992 4.75004 15.9742 5.37862 15.7937 6.01117L14.3465 11.085C14.2168 11.54 13.9423 11.9405 13.5646 12.2256C13.1869 12.5107 12.7266 12.665 12.2534 12.6651H7.54454C7.06756 12.6651 6.60377 12.5085 6.22446 12.2193C5.84515 11.9301 5.57131 11.5243 5.44504 11.0644L4.84338 8.86987L3.84588 5.50687L3.84508 5.50054C3.72158 5.05167 3.606 4.63129 3.43342 4.31779C3.26796 4.013 3.13496 3.95837 3.01542 3.95837H2.57288C2.4154 3.95837 2.26438 3.89582 2.15303 3.78447C2.04168 3.67312 1.97913 3.5221 1.97913 3.36462ZM5.99525 8.58171L6.58979 10.7501C6.70854 11.1792 7.09883 11.4776 7.54454 11.4776H12.2534C12.4685 11.4776 12.6777 11.4075 12.8494 11.278C13.0211 11.1484 13.1459 10.9664 13.205 10.7596L14.5801 5.93754H5.21308L5.98417 8.53975L5.99525 8.58171Z" fill="#2F1AC4"/>
<path d="M8.70829 15.0417C8.70829 15.4616 8.54148 15.8644 8.24454 16.1613C7.94761 16.4582 7.54489 16.625 7.12496 16.625C6.70503 16.625 6.30231 16.4582 6.00537 16.1613C5.70844 15.8644 5.54163 15.4616 5.54163 15.0417C5.54163 14.6218 5.70844 14.2191 6.00537 13.9221C6.30231 13.6252 6.70503 13.4584 7.12496 13.4584C7.54489 13.4584 7.94761 13.6252 8.24454 13.9221C8.54148 14.2191 8.70829 14.6218 8.70829 15.0417ZM7.52079 15.0417C7.52079 14.9367 7.47909 14.836 7.40486 14.7618C7.33062 14.6876 7.22994 14.6459 7.12496 14.6459C7.01998 14.6459 6.9193 14.6876 6.84506 14.7618C6.77083 14.836 6.72913 14.9367 6.72913 15.0417C6.72913 15.1467 6.77083 15.2474 6.84506 15.3216C6.9193 15.3958 7.01998 15.4375 7.12496 15.4375C7.22994 15.4375 7.33062 15.3958 7.40486 15.3216C7.47909 15.2474 7.52079 15.1467 7.52079 15.0417Z" fill="#2F1AC4"/>
<path d="M14.2499 15.0417C14.2499 15.4616 14.0831 15.8644 13.7862 16.1613C13.4892 16.4582 13.0865 16.625 12.6666 16.625C12.2467 16.625 11.8439 16.4582 11.547 16.1613C11.2501 15.8644 11.0833 15.4616 11.0833 15.0417C11.0833 14.6218 11.2501 14.2191 11.547 13.9221C11.8439 13.6252 12.2467 13.4584 12.6666 13.4584C13.0865 13.4584 13.4892 13.6252 13.7862 13.9221C14.0831 14.2191 14.2499 14.6218 14.2499 15.0417ZM13.0624 15.0417C13.0624 14.9367 13.0207 14.836 12.9465 14.7618C12.8722 14.6876 12.7716 14.6459 12.6666 14.6459C12.5616 14.6459 12.4609 14.6876 12.3867 14.7618C12.3125 14.836 12.2708 14.9367 12.2708 15.0417C12.2708 15.1467 12.3125 15.2474 12.3867 15.3216C12.4609 15.3958 12.5616 15.4375 12.6666 15.4375C12.7716 15.4375 12.8722 15.3958 12.9465 15.3216C13.0207 15.2474 13.0624 15.1467 13.0624 15.0417Z" fill="#2F1AC4"/>
</svg>
