<svg width="38" height="38" viewBox="0 0 38 38" fill="none" xmlns="http://www.w3.org/2000/svg">
<g filter="url(#filter0_d_22_22)">
<circle cx="19" cy="19" r="15" fill="#EEEFFB"/>
</g>
<path d="M10.9791 14.3646C10.9791 14.2072 11.0417 14.0561 11.153 13.9448C11.2644 13.8334 11.4154 13.7709 11.5729 13.7709H12.0146C12.7667 13.7709 13.218 14.2767 13.4753 14.747C13.647 15.0605 13.7713 15.4239 13.8687 15.7532C13.895 15.7511 13.9215 15.7501 13.9479 15.75H23.8421C24.4992 15.75 24.9742 16.3786 24.7937 17.0112L23.3465 22.085C23.2168 22.54 22.9423 22.9405 22.5646 23.2256C22.1869 23.5107 21.7266 23.665 21.2534 23.6651H16.5445C16.0676 23.6651 15.6038 23.5085 15.2245 23.2193C14.8451 22.9301 14.5713 22.5243 14.445 22.0644L13.8434 19.8699L12.8459 16.5069L12.8451 16.5005C12.7216 16.0517 12.606 15.6313 12.4334 15.3178C12.268 15.013 12.135 14.9584 12.0154 14.9584H11.5729C11.4154 14.9584 11.2644 14.8958 11.153 14.7845C11.0417 14.6731 10.9791 14.5221 10.9791 14.3646ZM14.9953 19.5817L15.5898 21.7501C15.7085 22.1792 16.0988 22.4776 16.5445 22.4776H21.2534C21.4685 22.4776 21.6777 22.4075 21.8494 22.278C22.0211 22.1484 22.1459 21.9664 22.205 21.7596L23.5801 16.9375H14.2131L14.9842 19.5397L14.9953 19.5817Z" fill="#2F1AC4"/>
<path d="M17.7083 26.0417C17.7083 26.4616 17.5415 26.8644 17.2445 27.1613C16.9476 27.4582 16.5449 27.625 16.125 27.625C15.705 27.625 15.3023 27.4582 15.0054 27.1613C14.7084 26.8644 14.5416 26.4616 14.5416 26.0417C14.5416 25.6218 14.7084 25.2191 15.0054 24.9221C15.3023 24.6252 15.705 24.4584 16.125 24.4584C16.5449 24.4584 16.9476 24.6252 17.2445 24.9221C17.5415 25.2191 17.7083 25.6218 17.7083 26.0417ZM16.5208 26.0417C16.5208 25.9367 16.4791 25.836 16.4049 25.7618C16.3306 25.6876 16.2299 25.6459 16.125 25.6459C16.02 25.6459 15.9193 25.6876 15.8451 25.7618C15.7708 25.836 15.7291 25.9367 15.7291 26.0417C15.7291 26.1467 15.7708 26.2474 15.8451 26.3216C15.9193 26.3958 16.02 26.4375 16.125 26.4375C16.2299 26.4375 16.3306 26.3958 16.4049 26.3216C16.4791 26.2474 16.5208 26.1467 16.5208 26.0417Z" fill="#2F1AC4"/>
<path d="M23.2499 26.0417C23.2499 26.4616 23.0831 26.8644 22.7862 27.1613C22.4892 27.4582 22.0865 27.625 21.6666 27.625C21.2467 27.625 20.8439 27.4582 20.547 27.1613C20.2501 26.8644 20.0833 26.4616 20.0833 26.0417C20.0833 25.6218 20.2501 25.2191 20.547 24.9221C20.8439 24.6252 21.2467 24.4584 21.6666 24.4584C22.0865 24.4584 22.4892 24.6252 22.7862 24.9221C23.0831 25.2191 23.2499 25.6218 23.2499 26.0417ZM22.0624 26.0417C22.0624 25.9367 22.0207 25.836 21.9465 25.7618C21.8722 25.6876 21.7716 25.6459 21.6666 25.6459C21.5616 25.6459 21.4609 25.6876 21.3867 25.7618C21.3125 25.836 21.2708 25.9367 21.2708 26.0417C21.2708 26.1467 21.3125 26.2474 21.3867 26.3216C21.4609 26.3958 21.5616 26.4375 21.6666 26.4375C21.7716 26.4375 21.8722 26.3958 21.9465 26.3216C22.0207 26.2474 22.0624 26.1467 22.0624 26.0417Z" fill="#2F1AC4"/>
<defs>
<filter id="filter0_d_22_22" x="0" y="0" width="38" height="38" filterUnits="userSpaceOnUse" color-interpolation-filters="sRGB">
<feFlood flood-opacity="0" result="BackgroundImageFix"/>
<feColorMatrix in="SourceAlpha" type="matrix" values="0 0 0 0 0 0 0 0 0 0 0 0 0 0 0 0 0 0 127 0" result="hardAlpha"/>
<feOffset/>
<feGaussianBlur stdDeviation="2"/>
<feColorMatrix type="matrix" values="0 0 0 0 0 0 0 0 0 0 0 0 0 0 0 0 0 0 0.05 0"/>
<feBlend mode="normal" in2="BackgroundImageFix" result="effect1_dropShadow_22_22"/>
<feBlend mode="normal" in="SourceGraphic" in2="effect1_dropShadow_22_22" result="shape"/>
</filter>
</defs>
</svg>
